<svg viewBox="0 0 800 500" xmlns="http://www.w3.org/2000/svg">
  <rect width="800" height="500" fill="#F4F7EE"/>
  <g stroke="#142008" stroke-opacity="0.06" stroke-width="1.5" stroke-dasharray="6 8">
    <line x1="0" y1="125" x2="800" y2="125"/>
    <line x1="0" y1="250" x2="800" y2="250"/>
    <line x1="0" y1="375" x2="800" y2="375"/>
    <line x1="160" y1="0" x2="160" y2="500"/>
    <line x1="320" y1="0" x2="320" y2="500"/>
    <line x1="480" y1="0" x2="480" y2="500"/>
    <line x1="640" y1="0" x2="640" y2="500"/>
  </g>
  <line x1="400" y1="80" x2="400" y2="130" stroke="#6B9B1E" stroke-width="3"/>
  <circle cx="400" cy="68" r="11" fill="#CCFF33" stroke="#6B9B1E" stroke-width="2"/>
  <rect x="270" y="130" width="260" height="200" rx="28" fill="none" stroke="#142008" stroke-width="3" stroke-opacity="0.6"/>
  <circle cx="350" cy="225" r="18" fill="#CCFF33" stroke="#6B9B1E" stroke-width="2"/>
  <circle cx="450" cy="225" r="18" fill="#CCFF33" stroke="#6B9B1E" stroke-width="2"/>
  <rect x="350" y="270" width="100" height="10" rx="5" fill="#142008" fill-opacity="0.28"/>
  <line x1="270" y1="230" x2="160" y2="230" stroke="#142008" stroke-opacity="0.25" stroke-width="2.5" stroke-dasharray="4 6"/>
  <line x1="530" y1="230" x2="640" y2="230" stroke="#142008" stroke-opacity="0.25" stroke-width="2.5" stroke-dasharray="4 6"/>
  <circle cx="160" cy="230" r="14" fill="none" stroke="#6B9B1E" stroke-width="2.5"/>
  <circle cx="640" cy="230" r="14" fill="none" stroke="#6B9B1E" stroke-width="2.5"/>
  <rect x="330" y="360" width="140" height="50" rx="14" fill="none" stroke="#142008" stroke-width="2.5" stroke-opacity="0.35"/>
  <line x1="365" y1="385" x2="435" y2="385" stroke="#6B9B1E" stroke-width="3" stroke-opacity="0.85"/>
</svg>
