<svg viewBox="0 0 800 500" xmlns="http://www.w3.org/2000/svg">
  <rect width="800" height="500" fill="#F4F7EE"/>
  <g stroke="#142008" stroke-opacity="0.06" stroke-width="1.5" stroke-dasharray="6 8">
    <line x1="0" y1="125" x2="800" y2="125"/>
    <line x1="0" y1="250" x2="800" y2="250"/>
    <line x1="0" y1="375" x2="800" y2="375"/>
    <line x1="160" y1="0" x2="160" y2="500"/>
    <line x1="320" y1="0" x2="320" y2="500"/>
    <line x1="480" y1="0" x2="480" y2="500"/>
    <line x1="640" y1="0" x2="640" y2="500"/>
  </g>
  <g stroke="#6B9B1E" stroke-width="2.5" fill="none" stroke-opacity="0.9">
    <line x1="400" y1="250" x2="160" y2="125"/>
    <line x1="400" y1="250" x2="640" y2="125"/>
    <line x1="400" y1="250" x2="160" y2="375"/>
    <line x1="400" y1="250" x2="640" y2="375"/>
  </g>
  <g stroke="#142008" stroke-width="2.5" fill="none" stroke-opacity="0.25" stroke-dasharray="4 6">
    <line x1="400" y1="250" x2="400" y2="80"/>
    <line x1="400" y1="250" x2="400" y2="420"/>
  </g>
  <circle cx="400" cy="250" r="46" fill="none" stroke="#6B9B1E" stroke-width="3"/>
  <circle cx="400" cy="250" r="14" fill="#CCFF33" stroke="#6B9B1E" stroke-width="2"/>
  <g fill="#F4F7EE" stroke="#6B9B1E" stroke-width="2.5">
    <circle cx="160" cy="125" r="16"/>
    <circle cx="640" cy="125" r="16"/>
    <circle cx="160" cy="375" r="16"/>
    <circle cx="640" cy="375" r="16"/>
  </g>
  <g fill="#142008" fill-opacity="0.45">
    <circle cx="400" cy="80" r="9"/>
    <circle cx="400" cy="420" r="9"/>
  </g>
</svg>
