<svg viewBox="0 0 800 500" xmlns="http://www.w3.org/2000/svg">
  <rect width="800" height="500" fill="#F4F7EE"/>
  <g stroke="#142008" stroke-opacity="0.06" stroke-width="1.5" stroke-dasharray="6 8">
    <line x1="0" y1="125" x2="800" y2="125"/>
    <line x1="0" y1="250" x2="800" y2="250"/>
    <line x1="0" y1="375" x2="800" y2="375"/>
    <line x1="160" y1="0" x2="160" y2="500"/>
    <line x1="320" y1="0" x2="320" y2="500"/>
    <line x1="480" y1="0" x2="480" y2="500"/>
    <line x1="640" y1="0" x2="640" y2="500"/>
  </g>
  <g fill="none" stroke-width="2.5">
    <rect x="120" y="90" width="160" height="130" rx="12" stroke="#6B9B1E"/>
    <rect x="320" y="90" width="160" height="130" rx="12" stroke="#142008" stroke-opacity="0.35"/>
    <rect x="520" y="90" width="160" height="130" rx="12" stroke="#142008" stroke-opacity="0.2"/>
    <rect x="120" y="260" width="160" height="130" rx="12" stroke="#142008" stroke-opacity="0.2"/>
    <rect x="320" y="260" width="160" height="130" rx="12" stroke="#6B9B1E" stroke-opacity="0.9"/>
    <rect x="520" y="260" width="160" height="130" rx="12" stroke="#142008" stroke-opacity="0.35"/>
  </g>
  <g fill="#CCFF33" stroke="#6B9B1E" stroke-width="2">
    <circle cx="200" cy="155" r="22"/>
    <circle cx="400" cy="325" r="22"/>
  </g>
  <g fill="#142008" fill-opacity="0.16">
    <circle cx="400" cy="155" r="22"/>
    <circle cx="600" cy="155" r="22"/>
    <circle cx="200" cy="325" r="22"/>
    <circle cx="600" cy="325" r="22"/>
  </g>
</svg>
