<svg viewBox="0 0 800 500" xmlns="http://www.w3.org/2000/svg">
  <rect width="800" height="500" fill="#F4F7EE"/>
  <g stroke="#142008" stroke-opacity="0.06" stroke-width="1.5" stroke-dasharray="6 8">
    <line x1="0" y1="125" x2="800" y2="125"/>
    <line x1="0" y1="250" x2="800" y2="250"/>
    <line x1="0" y1="375" x2="800" y2="375"/>
    <line x1="160" y1="0" x2="160" y2="500"/>
    <line x1="320" y1="0" x2="320" y2="500"/>
    <line x1="480" y1="0" x2="480" y2="500"/>
    <line x1="640" y1="0" x2="640" y2="500"/>
  </g>
  <polygon points="400,90 540,200 480,410 320,410 260,200" fill="none" stroke="#6B9B1E" stroke-width="3"/>
  <polygon points="400,90 540,200 400,250 260,200" fill="#CCFF33" fill-opacity="0.4"/>
  <polygon points="400,250 540,200 480,410 400,410" fill="#142008" fill-opacity="0.06"/>
  <polygon points="400,250 260,200 320,410 400,410" fill="#142008" fill-opacity="0.1"/>
  <line x1="400" y1="90" x2="400" y2="250" stroke="#142008" stroke-opacity="0.25" stroke-width="2"/>
  <line x1="260" y1="200" x2="540" y2="200" stroke="#142008" stroke-opacity="0.25" stroke-width="2"/>
  <line x1="400" y1="250" x2="320" y2="410" stroke="#142008" stroke-opacity="0.25" stroke-width="2"/>
  <line x1="400" y1="250" x2="480" y2="410" stroke="#142008" stroke-opacity="0.25" stroke-width="2"/>
  <g fill="#CCFF33" stroke="#6B9B1E" stroke-width="1.5">
    <circle cx="620" cy="120" r="9"/>
    <circle cx="180" cy="370" r="9"/>
  </g>
  <g fill="#142008" fill-opacity="0.28">
    <circle cx="650" cy="350" r="7"/>
    <circle cx="160" cy="140" r="7"/>
  </g>
</svg>
