<svg viewBox="0 0 800 500" xmlns="http://www.w3.org/2000/svg">
  <rect width="800" height="500" fill="#F4F7EE"/>
  <g stroke="#142008" stroke-opacity="0.06" stroke-width="1.5" stroke-dasharray="6 8">
    <line x1="0" y1="125" x2="800" y2="125"/>
    <line x1="0" y1="250" x2="800" y2="250"/>
    <line x1="0" y1="375" x2="800" y2="375"/>
    <line x1="160" y1="0" x2="160" y2="500"/>
    <line x1="320" y1="0" x2="320" y2="500"/>
    <line x1="480" y1="0" x2="480" y2="500"/>
    <line x1="640" y1="0" x2="640" y2="500"/>
  </g>
  <ellipse cx="400" cy="350" rx="160" ry="40" fill="none" stroke="#142008" stroke-opacity="0.2" stroke-width="3"/>
  <ellipse cx="400" cy="300" rx="160" ry="40" fill="none" stroke="#142008" stroke-opacity="0.35" stroke-width="3"/>
  <ellipse cx="400" cy="250" rx="160" ry="40" fill="#CCFF33" stroke="#6B9B1E" stroke-width="3"/>
  <text x="400" y="262" font-family="Arial, sans-serif" font-size="34" font-weight="700" fill="#1A2E05" text-anchor="middle">$</text>
  <rect x="360" y="110" width="80" height="60" rx="10" fill="none" stroke="#6B9B1E" stroke-width="3"/>
  <path d="M 375 110 V 90 a 25 25 0 0 1 50 0 V 110" fill="none" stroke="#6B9B1E" stroke-width="3"/>
  <circle cx="400" cy="140" r="6" fill="#6B9B1E"/>
</svg>
